<?xml version="1.0" encoding="utf-8"?>
<!-- Generator: Adobe Illustrator 24.1.0, SVG Export Plug-In . SVG Version: 6.00 Build 0)  -->
<svg version="1.1" id="Layer_1" xmlns="http://www.w3.org/2000/svg" xmlns:xlink="http://www.w3.org/1999/xlink" x="0px" y="0px"
	 viewBox="0 0 790 768" style="enable-background:new 0 0 790 768;" xml:space="preserve">
<style type="text/css">
	.st0{fill:#FAEFE9;}
	.st1{fill:#73E5E2;}
	.st2{fill:none;stroke:#FBDC8E;stroke-width:2.8254;stroke-linecap:round;stroke-miterlimit:10;}
	.st3{fill:#99574A;}
	.st4{fill:#B37361;}
	.st5{fill:none;stroke:#FBDC8E;stroke-width:5.2632;stroke-linecap:round;stroke-miterlimit:10;}
	.st6{fill:#E2E2E2;}
	.st7{fill:#EFEFEF;}
	.st8{fill:none;stroke:#FBDC8E;stroke-width:1.1105;stroke-linecap:round;stroke-miterlimit:10;}
	.st9{fill:#50B89D;}
	.st10{fill:none;stroke:#D8D8D8;stroke-width:4;stroke-linecap:round;stroke-linejoin:round;}
	.st11{fill:#1F161E;}
	.st12{fill:#FADB93;}
	.st13{fill:#AB8FE2;}
	.st14{fill:#F8CDBA;}
	.st15{fill:#FA9E9F;}
	.st16{fill:none;stroke:#1F161E;stroke-width:0.69;stroke-linecap:round;stroke-miterlimit:10;}
	.st17{fill:none;stroke:#969696;stroke-width:4;stroke-linecap:round;stroke-miterlimit:10;}
	.st18{fill:none;stroke:#969696;stroke-width:4;stroke-miterlimit:10;}
	.st19{fill:none;stroke:#1F161E;stroke-linecap:round;stroke-linejoin:round;}
	.st20{fill:#FFFFFF;}
</style>
<g>
	<g id="Layer_2_3_">
		<g id="Background_1_">
			<ellipse class="st0" cx="571.74" cy="240.63" rx="184.26" ry="180.37"/>
		</g>
	</g>
</g>
<g>
	<g id="Layer_2_4_">
		<g id="Layer_2-2_2_">
			<path class="st1" d="M692.59,313c34.64,0,46.34,24.86,46.34,42.13c0,36.02-7.37,27.99-7.37,65.22
				c0,40.01,48.44,90.54,48.44,159.65c0,94.48-77.93,108.33-87.41,108.33c-49.14,0-67.39-57.22-67.39-91.94
				c0-41.13,34.23-85.16,34.23-124.8c0-29-8.95-40.27-8.95-85.22C650.48,341.15,675.22,313,692.59,313z"/>
			<line class="st2" x1="689.56" y1="766.5" x2="689.56" y2="372.19"/>
			<line class="st2" x1="690.01" y1="628.28" x2="747.7" y2="565.7"/>
			<line class="st2" x1="688.57" y1="452.66" x2="669.98" y2="432.99"/>
			<line class="st2" x1="690.01" y1="399.9" x2="715.95" y2="372.45"/>
		</g>
	</g>
</g>
<g>
	<g id="Layer_2_2_">
		<g id="Layer_2-2_1_">
			<polygon class="st3" points="254.44,14 109.87,768 399,768 			"/>
			<polygon class="st4" points="116.9,250.35 21,768 212.78,768 			"/>
			<line class="st5" x1="117.45" y1="414.01" x2="117.45" y2="767"/>
			<line class="st5" x1="254.03" y1="229.49" x2="254.03" y2="767"/>
			<line class="st5" x1="116.9" y1="546.05" x2="142.34" y2="512.8"/>
			<line class="st5" x1="116.9" y1="689.67" x2="77.33" y2="637.95"/>
			<line class="st5" x1="254.44" y1="383.08" x2="225.51" y2="345.27"/>
			<line class="st5" x1="254.44" y1="600.76" x2="312.09" y2="525.42"/>
		</g>
	</g>
</g>
<g>
	<g id="Layer_2_6_">
		<g id="Layer_2-2_4_">
			<path class="st6" d="M395.88,768.99c0.03-0.69,0.05-1.37,0.05-2.07c0-33.05-35.5-59.84-79.3-59.84s-79.3,26.79-79.3,59.85
				c0,0.69,0.02,1.38,0.05,2.07L395.88,768.99z"/>
			<path class="st7" d="M441.22,769c0.02-0.48,0.04-0.97,0.04-1.46c0-23.35-26.51-42.27-59.21-42.27s-59.21,18.93-59.21,42.27
				c0,0.49,0.02,0.97,0.04,1.46H441.22z"/>
		</g>
	</g>
</g>
<g>
	<g id="Layer_2_9_">
		<g id="Layer_2-2_7_">
			<path class="st1" d="M9.62,615.99c-30.26,35.4,82.34,163.33,98.71,145.77S39.21,581.42,9.62,615.99z"/>
			<path class="st8" d="M22.36,633.73c12.7,13.47,70.88,91.19,85.97,128.04"/>
			<path class="st9" d="M67.75,502.38c57.17-19.04,78.25,255.46,49.38,263.44C88.26,773.8,34.94,513.31,67.75,502.38z"/>
			<path class="st8" d="M80.8,548.24c4.65,16.54,30.73,133.09,36.32,217.58"/>
		</g>
	</g>
</g>
<g>
	<g id="Layer_2_10_">
		<g id="vector_1_">
			<line class="st10" x1="370.93" y1="736.04" x2="403.81" y2="577.32"/>
			<path class="st11" d="M460.52,585.51c-3.28,3.16-10.4,14.25-13.75,14.25c-9.29,0-37.75-17.41-39.69-22.2
				c-0.49-1.31,2.86-4.66,3.79-4.66c0.93,0,17.51,9.94,27.7,9.02c5.55-0.5,9.22-11.55,15.22-17.96"/>
			<path class="st11" d="M634.18,598.04c0.69-0.78,4.38-5.55,5.71-5.73c2.39-0.36,11.49,8.6,11.56,9.45
				c0.07,0.85-0.49,2.03-1.12,1.95s-5.15-2.61-5.99-2.7s-3.2,1.21-3.81,2.48"/>
			<path class="st11" d="M458.59,603.35c-2.91,2.66-32.96,59.93-32.96,67.28s24.12,62.47,26.14,63.65c2.02,1.18,7.98,0.24,9.5-1.42
				c1.52-1.66-7.63-60.81-7.63-60.81l44.67-45.9L458.59,603.35z"/>
			<path class="st12" d="M494.3,581.35c3.25,1.92,50.13,28.4,62.98,40.33c6.98-1.83,76.01-25.89,76.93-25.34
				c0.92,0.55,7.71,5.78,7.71,7.02s-70.84,57.98-89.95,57.98c-6.98,0-73.99-39.21-93.36-57.98
				C456.66,592.85,485.3,576.02,494.3,581.35z"/>
			<path class="st13" d="M464.22,542.82c7.05-2.49,30.02,36.76,30.02,38.52c0,1.76-32.43,22.24-35.71,22.01
				S430.97,554.57,464.22,542.82z"/>
			<path class="st11" d="M441.69,528.12c-0.95-0.08-4.11-4.02-2.42-12.81c2.04-2.67,8.79-3.52,9.02-0.49
				S444.59,528.39,441.69,528.12z"/>
			<path class="st14" d="M455.84,552.31c0.24,1.74,9.82,0.55,9.56-1.31l-1.6-11.62l-9.56,1.31L455.84,552.31z"/>
			<path d="M464.76,546.32c-0.14-1.03-3-4.27-4.74-3.43c2.14-1.1,2.89-3.96,3.79-3.52L464.76,546.32z"/>
			<circle class="st14" cx="453.61" cy="532.11" r="12.54"/>
			
				<ellipse transform="matrix(0.9901 -0.14 0.14 0.9901 -70.582 67.0694)" class="st15" cx="441.35" cy="535.14" rx="2.09" ry="1.09"/>
			
				<ellipse transform="matrix(0.9907 -0.1361 0.1361 0.9907 -68.3927 66.7778)" class="st15" cx="454.31" cy="533.71" rx="2.09" ry="1.09"/>
			<path class="st16" d="M446.03,532.57c-0.31,0.6-1.98,3.2,0.25,3.85"/>
			<path class="st16" d="M450.82,538.56c0.62-0.1,1.48-0.99,1.89-1.76"/>
			<path class="st11" d="M458.17,505.09c16.6,0,28.51,2.73,36.28,2.73c11.95,0,21.38-5.36,34.78-5.36c6.1,0,21.73,5.19,21.73,22.75
				c0,9.95-5.55,29.72-29.32,29.72c-20.35,0-23.89-8.61-32.15-8.61c-8.7,0-24.87,4.1-27.6-6.99c-0.6-2.95-1.26-6.56-2.89-9.53
				c-9.08-3.17-12.03-2.89-16.32-5.43C436.48,521.42,436.18,505.09,458.17,505.09z"/>
			<circle class="st14" cx="461.27" cy="531.66" r="2.76"/>
			<path class="st11" d="M460.63,732.53c0.22,1,1.8,6.83,1.17,8c-1.14,2.12-13.77,4.05-14.48,3.59s-1.34-1.6-0.89-2.08
				s5.17-2.57,5.74-3.18c0.57-0.61,0.95-3.29,0.31-4.54"/>
			<line class="st10" x1="385" y1="750" x2="514" y2="750"/>
			<line class="st17" x1="402.84" y1="576.08" x2="412.22" y2="570.06"/>
			<ellipse class="st14" cx="405.85" cy="573.92" rx="5.29" ry="3.01"/>
			<ellipse class="st14" cx="401.74" cy="577.32" rx="5.29" ry="3.01"/>
			<line class="st17" x1="392.79" y1="582.52" x2="399.87" y2="577.98"/>
			<path class="st13" d="M464.03,586.33c-3.28,3.15-17.14,16.21-20.48,16.21c-9.29,0-37.74-17.41-39.69-22.2
				c-0.49-1.31,2.86-4.66,3.79-4.66c0.93,0,21.21,10.7,31.39,9.75c5.55-0.5,16.27-19.98,22.26-26.4"/>
			<circle class="st18" cx="369.96" cy="749.77" r="14.97"/>
			
				<ellipse transform="matrix(0.1602 -0.9871 0.9871 0.1602 -295.9507 1151.697)" class="st18" cx="528.85" cy="749.77" rx="14.97" ry="14.97"/>
			<path class="st19" d="M447.33,577.61c2.51-3.29,5.36-7.45,7.8-10.93"/>
			<path class="st19" d="M464.03,586.33c-1.64,1.57-5.92,5.63-10.22,9.29"/>
			<path class="st11" d="M460.21,590.37c-0.94,0.85-5.77,7.72-4.36,9.81c-1.8-3.31-2.3-4.34-2.3-4.34"/>
		</g>
	</g>
</g>
<g>
	<g id="Layer_2_5_">
		<g id="Layer_2-2_3_">
			<path class="st20" d="M320.36,213.93c0-15.79,53.78-40.5,83.19-40.5c58.01,0,39.9,20.25,76.4,20.25
				c41.58,0,51.08-90.18,114.36-90.18c69.16,0,58.3,88.21,100.75,88.21c18.28,0,27.44-8.57,53.42-8.57
				c15.07,0,31.57,15.06,31.57,30.87L320.36,213.93z"/>
		</g>
	</g>
</g>
<g>
	<g id="Layer_2_7_">
		<g id="Layer_2-2_5_">
			<path class="st20" d="M337.99,316.99c0-8.95,22.21-10.84,30.98-10.84c17.8,0,18.98-10.19,33.76-10.19
				c12.99,0,19.6,10.52,31.7,10.52c25.96,0,31.74-29.9,57-29.9c25.7,0,24.38,31.21,48.3,31.21c12.16,0,85.2,2.3,85.2,9.21
				L337.99,316.99z"/>
		</g>
	</g>
</g>
</svg>
