<?xml version="1.0" encoding="utf-8"?>
<!-- Generator: Adobe Illustrator 24.1.0, SVG Export Plug-In . SVG Version: 6.00 Build 0)  -->
<svg version="1.1" id="Layer_1" xmlns="http://www.w3.org/2000/svg" xmlns:xlink="http://www.w3.org/1999/xlink" x="0px" y="0px"
	 viewBox="0 0 1024 768" style="enable-background:new 0 0 1024 768;" xml:space="preserve">
<style type="text/css">
	.st0{fill:#99574A;}
	.st1{fill:#B37361;}
	.st2{fill:none;stroke:#FBDC8E;stroke-width:3.7467;stroke-linecap:round;stroke-miterlimit:10;}
	.st3{fill:#FAEFE9;}
	.st4{fill:#E2E2E2;}
	.st5{fill:#EFEFEF;}
	.st6{fill:#73E5E2;}
	.st7{fill:none;stroke:#FBDC8E;stroke-width:1.1105;stroke-linecap:round;stroke-miterlimit:10;}
	.st8{fill:#50B89D;}
	.st9{fill:#8E554A;}
	.st10{fill:#B27363;}
	.st11{fill:none;stroke:#78E5E1;stroke-width:4;stroke-linecap:round;stroke-linejoin:round;}
	.st12{fill:none;stroke:#D8D8D8;stroke-width:4;stroke-linecap:round;stroke-linejoin:round;}
	.st13{fill:#1F161E;}
	.st14{fill:#FADB93;}
	.st15{fill:#AB8FE2;}
	.st16{fill:#F8CDBA;}
	.st17{fill:#FA9E9F;}
	.st18{fill:none;stroke:#1F161E;stroke-width:0.69;stroke-linecap:round;stroke-miterlimit:10;}
	.st19{fill:none;stroke:#969696;stroke-width:4;stroke-linecap:round;stroke-miterlimit:10;}
	.st20{fill:none;stroke:#969696;stroke-width:4;stroke-miterlimit:10;}
	.st21{fill:none;stroke:#1F161E;stroke-linecap:round;stroke-linejoin:round;}
</style>
<g>
	<g id="Layer_2_2_">
		<g id="Layer_2-2_1_">
			<polygon class="st0" points="240.93,163 128.88,656 352.97,656 			"/>
			<polygon class="st1" points="134.33,317.54 60,656 208.64,656 			"/>
			<line class="st2" x1="134.75" y1="424.54" x2="134.75" y2="655.34"/>
			<line class="st2" x1="240.61" y1="303.9" x2="240.61" y2="655.34"/>
			<line class="st2" x1="134.33" y1="510.88" x2="154.04" y2="489.14"/>
			<line class="st2" x1="134.33" y1="604.78" x2="103.66" y2="570.97"/>
			<line class="st2" x1="240.93" y1="404.32" x2="218.5" y2="379.6"/>
			<line class="st2" x1="240.93" y1="546.65" x2="285.61" y2="497.39"/>
		</g>
	</g>
</g>
<g>
	<g id="Layer_2_3_">
		<g id="Background_1_">
			<ellipse class="st3" cx="669.74" cy="199.63" rx="184.26" ry="180.37"/>
		</g>
	</g>
</g>
<g>
	<g id="Layer_2_6_">
		<g id="Layer_2-2_4_">
			<path class="st4" d="M454.88,655.99c0.03-0.69,0.05-1.37,0.05-2.07c0-33.05-35.5-59.84-79.3-59.84s-79.3,26.79-79.3,59.85
				c0,0.69,0.02,1.38,0.05,2.07L454.88,655.99z"/>
			<path class="st5" d="M500.22,656c0.02-0.48,0.04-0.97,0.04-1.46c0-23.35-26.51-42.27-59.21-42.27s-59.21,18.93-59.21,42.27
				c0,0.49,0.02,0.97,0.04,1.46H500.22z"/>
		</g>
	</g>
</g>
<g>
	<g id="Layer_2_9_">
		<g id="Layer_2-2_7_">
			<path class="st6" d="M718.62,499.99c-30.26,35.4,82.34,163.33,98.71,145.77S748.21,465.42,718.62,499.99z"/>
			<path class="st7" d="M731.36,517.73c12.7,13.47,70.88,91.19,85.97,128.04"/>
			<path class="st8" d="M776.75,386.38c57.17-19.04,78.25,255.46,49.38,263.44C797.26,657.8,743.94,397.31,776.75,386.38z"/>
			<path class="st7" d="M789.8,432.24c4.65,16.54,30.73,133.09,36.32,217.58"/>
		</g>
	</g>
</g>
<g>
	<g id="Layer_2_8_">
		<g id="Layer_2-2_6_">
			<path class="st9" d="M808.76,510.93c19.72-6.93,36.53,20.16,41.05,27.36c19.79,31.62,3.09,59.2-5.69,62.36
				c-15.29,5.52-31.89-19.32-36.59-27.18c-8.02-13.32-5.53-31.98-6.41-37.66C800.23,530.11,803.5,512.78,808.76,510.93z"/>
			<path class="st10" d="M859.74,477.35c12.44-1.78,19.64,8.51,21.87,14.39c3.6,9.59,11.37,14.75,11.37,27
				c0,28.6-17.41,51.52-25.23,51.52c-17.23,0-23.63-18.12-23.63-25.76c0-12.97,3.43-28.61,3.02-32.51
				C846.29,503.97,841.49,479.96,859.74,477.35z"/>
			<path class="st11" d="M819.2,532.49c4.33,5.66,26.58,57.87,31.1,116.17"/>
			<path class="st11" d="M833.53,530.58c-0.47,1.78-4.37,12.47-7.52,16.1"/>
			<path class="st11" d="M813.43,564.04c2.99,1.99,11.6,3.92,20.34,3.97"/>
			<path class="st11" d="M844.71,576.54c-0.81,1.01-3.15,3.97-6.7,5.4"/>
			<path class="st11" d="M865.03,512.3c5.12,34.38-7.09,121.68-7.52,136.35"/>
			<path class="st11" d="M877.41,515.2c-1.35,2.07-6.85,6.98-11.03,8.51"/>
			<path class="st11" d="M853.36,540.96c2.69,1.24,7.74,3.41,12.61,3.41"/>
		</g>
	</g>
</g>
<g>
	<g id="Layer_2_10_">
		<g id="vector_1_">
			<line class="st12" x1="456.93" y1="643.04" x2="489.81" y2="484.32"/>
			<path class="st13" d="M546.52,492.51c-3.28,3.16-10.4,14.25-13.75,14.25c-9.29,0-37.75-17.41-39.69-22.2
				c-0.49-1.31,2.86-4.66,3.79-4.66c0.93,0,17.51,9.94,27.7,9.02c5.55-0.5,9.22-11.55,15.22-17.96"/>
			<path class="st13" d="M720.18,505.04c0.69-0.78,4.38-5.55,5.71-5.73c2.39-0.36,11.49,8.6,11.56,9.45
				c0.07,0.85-0.49,2.03-1.12,1.95s-5.15-2.61-5.99-2.7s-3.2,1.21-3.81,2.48"/>
			<path class="st13" d="M544.59,510.35c-2.91,2.66-32.96,59.93-32.96,67.28s24.12,62.47,26.14,63.65c2.02,1.18,7.98,0.24,9.5-1.42
				c1.52-1.66-7.63-60.81-7.63-60.81l44.67-45.9L544.59,510.35z"/>
			<path class="st14" d="M580.3,488.35c3.25,1.92,50.13,28.4,62.98,40.33c6.98-1.83,76.01-25.89,76.93-25.34
				c0.92,0.55,7.71,5.78,7.71,7.02c0,1.23-70.84,57.98-89.95,57.98c-6.98,0-73.99-39.21-93.36-57.98
				C542.66,499.85,571.3,483.02,580.3,488.35z"/>
			<path class="st15" d="M550.22,449.82c7.05-2.49,30.02,36.76,30.02,38.52s-32.43,22.24-35.71,22.01
				C541.24,510.12,516.97,461.57,550.22,449.82z"/>
			<path class="st13" d="M527.69,435.12c-0.95-0.08-4.11-4.02-2.42-12.81c2.04-2.67,8.79-3.52,9.02-0.49
				C534.51,424.84,530.59,435.39,527.69,435.12z"/>
			<path class="st16" d="M541.84,459.31c0.24,1.74,9.82,0.55,9.56-1.31l-1.6-11.62l-9.56,1.31L541.84,459.31z"/>
			<path d="M550.76,453.32c-0.14-1.03-3-4.27-4.74-3.43c2.14-1.1,2.89-3.96,3.79-3.52L550.76,453.32z"/>
			<circle class="st16" cx="539.61" cy="439.11" r="12.54"/>
			
				<ellipse transform="matrix(0.9901 -0.14 0.14 0.9901 -56.7129 78.195)" class="st17" cx="527.35" cy="442.14" rx="2.09" ry="1.09"/>
			
				<ellipse transform="matrix(0.9907 -0.1361 0.1361 0.9907 -54.9392 77.6143)" class="st17" cx="540.31" cy="440.71" rx="2.09" ry="1.09"/>
			<path class="st18" d="M532.03,439.57c-0.31,0.6-1.98,3.2,0.25,3.85"/>
			<path class="st18" d="M536.82,445.56c0.62-0.1,1.48-0.99,1.89-1.76"/>
			<path class="st13" d="M544.17,412.09c16.6,0,28.51,2.73,36.28,2.73c11.95,0,21.38-5.36,34.78-5.36c6.1,0,21.73,5.19,21.73,22.75
				c0,9.95-5.55,29.72-29.32,29.72c-20.35,0-23.89-8.61-32.15-8.61c-8.7,0-24.87,4.1-27.6-6.99c-0.6-2.95-1.26-6.56-2.89-9.53
				c-9.08-3.17-12.03-2.89-16.32-5.43C522.48,428.42,522.18,412.09,544.17,412.09z"/>
			<circle class="st16" cx="547.27" cy="438.66" r="2.76"/>
			<path class="st13" d="M546.63,639.53c0.22,1,1.8,6.83,1.17,8c-1.14,2.12-13.77,4.05-14.48,3.59c-0.71-0.46-1.34-1.6-0.89-2.08
				s5.17-2.57,5.74-3.18c0.57-0.61,0.95-3.29,0.31-4.54"/>
			<line class="st12" x1="471" y1="657" x2="600" y2="657"/>
			<line class="st19" x1="488.84" y1="483.08" x2="498.22" y2="477.06"/>
			<ellipse class="st16" cx="491.85" cy="480.92" rx="5.29" ry="3.01"/>
			<ellipse class="st16" cx="487.74" cy="484.32" rx="5.29" ry="3.01"/>
			<line class="st19" x1="478.79" y1="489.52" x2="485.87" y2="484.98"/>
			<path class="st15" d="M550.03,493.33c-3.28,3.15-17.14,16.21-20.48,16.21c-9.29,0-37.74-17.41-39.69-22.2
				c-0.49-1.31,2.86-4.66,3.79-4.66c0.93,0,21.21,10.7,31.39,9.75c5.55-0.5,16.27-19.98,22.26-26.4"/>
			<circle class="st20" cx="455.96" cy="656.77" r="14.97"/>
			
				<ellipse transform="matrix(0.1602 -0.9871 0.9871 0.1602 -131.9272 1158.4835)" class="st20" cx="614.85" cy="656.77" rx="14.97" ry="14.97"/>
			<path class="st21" d="M533.33,484.61c2.51-3.29,5.36-7.45,7.8-10.93"/>
			<path class="st21" d="M550.03,493.33c-1.64,1.57-5.92,5.63-10.22,9.29"/>
			<path class="st13" d="M546.21,497.37c-0.94,0.85-5.77,7.72-4.36,9.81c-1.8-3.31-2.3-4.33-2.3-4.33"/>
		</g>
	</g>
</g>
</svg>
